<mxfile host="www.draw.io" modified="2019-11-12T09:22:33.273Z" agent="Mozilla/5.0 (Macintosh; Intel Mac OS X 10_14_0) AppleWebKit/537.36 (KHTML, like Gecko) Chrome/78.0.3904.97 Safari/537.36" etag="3GpNGdbZtxbEGzWKt7Y3" version="12.2.3" type="github" pages="1">
  <diagram id="c3yrn9GL6h-rGFnJpoPu" name="Page-1">
    <mxGraphModel dx="932" dy="600" grid="1" gridSize="10" guides="1" tooltips="1" connect="1" arrows="1" fold="1" page="1" pageScale="1" pageWidth="827" pageHeight="1169" math="0" shadow="0">
      <root>
        <mxCell id="0"/>
        <mxCell id="1" parent="0"/>
        <mxCell id="3ibIDsbKt7TbLzXAiMd--4" value="" style="edgeStyle=orthogonalEdgeStyle;rounded=0;orthogonalLoop=1;jettySize=auto;html=1;exitX=1;exitY=0.5;exitDx=0;exitDy=0;entryX=0;entryY=0.5;entryDx=0;entryDy=0;" edge="1" parent="1" source="3ibIDsbKt7TbLzXAiMd--1" target="3ibIDsbKt7TbLzXAiMd--3">
          <mxGeometry relative="1" as="geometry"/>
        </mxCell>
        <mxCell id="3ibIDsbKt7TbLzXAiMd--1" value="&lt;font style=&quot;font-size: 18px&quot;&gt;定义流程模板&lt;/font&gt;" style="rounded=0;whiteSpace=wrap;html=1;fillColor=#ffe6cc;strokeColor=#d79b00;" vertex="1" parent="1">
          <mxGeometry x="110" y="380" width="120" height="60" as="geometry"/>
        </mxCell>
        <mxCell id="3ibIDsbKt7TbLzXAiMd--6" value="" style="edgeStyle=orthogonalEdgeStyle;rounded=0;orthogonalLoop=1;jettySize=auto;html=1;" edge="1" parent="1" source="3ibIDsbKt7TbLzXAiMd--3" target="3ibIDsbKt7TbLzXAiMd--5">
          <mxGeometry relative="1" as="geometry"/>
        </mxCell>
        <mxCell id="3ibIDsbKt7TbLzXAiMd--13" style="edgeStyle=orthogonalEdgeStyle;rounded=0;orthogonalLoop=1;jettySize=auto;html=1;exitX=0.5;exitY=0;exitDx=0;exitDy=0;entryX=0;entryY=0.5;entryDx=0;entryDy=0;" edge="1" parent="1" source="3ibIDsbKt7TbLzXAiMd--3" target="3ibIDsbKt7TbLzXAiMd--12">
          <mxGeometry relative="1" as="geometry"/>
        </mxCell>
        <mxCell id="3ibIDsbKt7TbLzXAiMd--17" style="edgeStyle=orthogonalEdgeStyle;rounded=0;orthogonalLoop=1;jettySize=auto;html=1;exitX=0.5;exitY=1;exitDx=0;exitDy=0;entryX=0.5;entryY=0;entryDx=0;entryDy=0;dashed=1;" edge="1" parent="1" source="3ibIDsbKt7TbLzXAiMd--3" target="3ibIDsbKt7TbLzXAiMd--9">
          <mxGeometry relative="1" as="geometry"/>
        </mxCell>
        <mxCell id="3ibIDsbKt7TbLzXAiMd--3" value="&lt;font style=&quot;font-size: 18px&quot;&gt;发起流程&lt;/font&gt;" style="rounded=0;whiteSpace=wrap;html=1;fillColor=#ffe6cc;strokeColor=#d79b00;" vertex="1" parent="1">
          <mxGeometry x="280" y="380" width="120" height="60" as="geometry"/>
        </mxCell>
        <mxCell id="3ibIDsbKt7TbLzXAiMd--8" value="" style="edgeStyle=orthogonalEdgeStyle;rounded=0;orthogonalLoop=1;jettySize=auto;html=1;" edge="1" parent="1" source="3ibIDsbKt7TbLzXAiMd--5" target="3ibIDsbKt7TbLzXAiMd--7">
          <mxGeometry relative="1" as="geometry"/>
        </mxCell>
        <mxCell id="3ibIDsbKt7TbLzXAiMd--18" style="edgeStyle=orthogonalEdgeStyle;rounded=0;orthogonalLoop=1;jettySize=auto;html=1;exitX=0.5;exitY=1;exitDx=0;exitDy=0;dashed=1;" edge="1" parent="1" source="3ibIDsbKt7TbLzXAiMd--5" target="3ibIDsbKt7TbLzXAiMd--10">
          <mxGeometry relative="1" as="geometry"/>
        </mxCell>
        <mxCell id="3ibIDsbKt7TbLzXAiMd--19" style="edgeStyle=orthogonalEdgeStyle;rounded=0;orthogonalLoop=1;jettySize=auto;html=1;exitX=0.5;exitY=1;exitDx=0;exitDy=0;entryX=0.5;entryY=0;entryDx=0;entryDy=0;dashed=1;" edge="1" parent="1" source="3ibIDsbKt7TbLzXAiMd--5" target="3ibIDsbKt7TbLzXAiMd--11">
          <mxGeometry relative="1" as="geometry"/>
        </mxCell>
        <mxCell id="3ibIDsbKt7TbLzXAiMd--5" value="&lt;font style=&quot;font-size: 18px&quot;&gt;审核&lt;/font&gt;" style="rounded=0;whiteSpace=wrap;html=1;fillColor=#ffe6cc;strokeColor=#d79b00;" vertex="1" parent="1">
          <mxGeometry x="470" y="380" width="120" height="60" as="geometry"/>
        </mxCell>
        <mxCell id="3ibIDsbKt7TbLzXAiMd--7" value="&lt;font style=&quot;font-size: 18px&quot;&gt;结束&lt;/font&gt;" style="rounded=0;whiteSpace=wrap;html=1;fillColor=#ffe6cc;strokeColor=#d79b00;" vertex="1" parent="1">
          <mxGeometry x="670" y="380" width="120" height="60" as="geometry"/>
        </mxCell>
        <mxCell id="3ibIDsbKt7TbLzXAiMd--2" value="&lt;font style=&quot;font-size: 24px&quot;&gt;审批业务流程&lt;/font&gt;" style="text;html=1;strokeColor=none;fillColor=none;align=center;verticalAlign=middle;whiteSpace=wrap;rounded=0;" vertex="1" parent="1">
          <mxGeometry x="100" y="315" width="150" height="20" as="geometry"/>
        </mxCell>
        <mxCell id="3ibIDsbKt7TbLzXAiMd--9" value="&lt;font style=&quot;font-size: 14px&quot;&gt;申请&lt;/font&gt;" style="rounded=0;whiteSpace=wrap;html=1;fillColor=#d5e8d4;strokeColor=#82b366;" vertex="1" parent="1">
          <mxGeometry x="310" y="480" width="60" height="30" as="geometry"/>
        </mxCell>
        <mxCell id="3ibIDsbKt7TbLzXAiMd--10" value="&lt;font style=&quot;font-size: 14px&quot;&gt;通过&lt;/font&gt;" style="rounded=0;whiteSpace=wrap;html=1;fillColor=#d5e8d4;strokeColor=#82b366;" vertex="1" parent="1">
          <mxGeometry x="460" y="480" width="60" height="30" as="geometry"/>
        </mxCell>
        <mxCell id="3ibIDsbKt7TbLzXAiMd--11" value="&lt;font style=&quot;font-size: 14px&quot;&gt;驳回&lt;/font&gt;" style="rounded=0;whiteSpace=wrap;html=1;fillColor=#d5e8d4;strokeColor=#82b366;" vertex="1" parent="1">
          <mxGeometry x="550" y="480" width="60" height="30" as="geometry"/>
        </mxCell>
        <mxCell id="3ibIDsbKt7TbLzXAiMd--14" style="edgeStyle=orthogonalEdgeStyle;rounded=0;orthogonalLoop=1;jettySize=auto;html=1;" edge="1" parent="1" source="3ibIDsbKt7TbLzXAiMd--12" target="3ibIDsbKt7TbLzXAiMd--7">
          <mxGeometry relative="1" as="geometry"/>
        </mxCell>
        <mxCell id="3ibIDsbKt7TbLzXAiMd--20" style="edgeStyle=orthogonalEdgeStyle;rounded=0;orthogonalLoop=1;jettySize=auto;html=1;exitX=0.5;exitY=1;exitDx=0;exitDy=0;entryX=0.5;entryY=0;entryDx=0;entryDy=0;dashed=1;" edge="1" parent="1" source="3ibIDsbKt7TbLzXAiMd--12" target="3ibIDsbKt7TbLzXAiMd--15">
          <mxGeometry relative="1" as="geometry"/>
        </mxCell>
        <mxCell id="3ibIDsbKt7TbLzXAiMd--12" value="&lt;font style=&quot;font-size: 18px&quot;&gt;取消流程&lt;/font&gt;" style="rounded=0;whiteSpace=wrap;html=1;fillColor=#ffe6cc;strokeColor=#d79b00;" vertex="1" parent="1">
          <mxGeometry x="470" y="240" width="120" height="60" as="geometry"/>
        </mxCell>
        <mxCell id="3ibIDsbKt7TbLzXAiMd--15" value="&lt;font style=&quot;font-size: 14px&quot;&gt;撤销&lt;/font&gt;" style="rounded=0;whiteSpace=wrap;html=1;fillColor=#d5e8d4;strokeColor=#82b366;" vertex="1" parent="1">
          <mxGeometry x="500" y="325" width="60" height="30" as="geometry"/>
        </mxCell>
      </root>
    </mxGraphModel>
  </diagram>
</mxfile>
